<!DOCTYPE svg PUBLIC "-//W3C//DTD SVG 1.1//EN" "http://www.w3.org/Graphics/SVG/1.1/DTD/svg11.dtd"[]><svg t="1718286299096" class="icon" viewBox="0 0 1024 1024" version="1.1" xmlns="http://www.w3.org/2000/svg" p-id="14887" xmlns:xlink="http://www.w3.org/1999/xlink" width="26" height="26"><path d="M833.59582506 866.56887254h-648.96313262c-69.2900405 0-125.65451385-57.07184681-125.65451368-127.19786696v-436.88094114c0-70.14210578 56.36447334-127.19786691 125.65451368-127.1978672h648.96313262c69.2900405 0 125.65451385 57.05576105 125.65451371 127.1978672v436.88094114c0 70.12602013-56.38054581 127.19786691-125.65451371 127.19786696z m-648.97921823-610.90987706c-24.96692373 0-45.27164294 20.99600713-45.27162983 46.8149963v436.88094128c0 25.80290369 20.32079163 46.8149833 45.27162983 46.81498337h648.96313268c24.96692373 0 45.27164294-21.01207943 45.27164289-46.81498337v-436.88094128c0-25.8189761-20.32079163-46.8149833-45.27164289-46.8149963h-648.96313268z" fill="#36ab60" p-id="14888"></path><path d="M243.84271922 336.0418791a24.1148585 24.1148585 0 0 1 24.11485858 24.11485864v225.07206137a24.1148585 24.1148585 0 1 1-48.22973038 0v-225.07206137a24.1148585 24.1148585 0 0 1 24.1148718-24.11485864zM420.6850503 336.0418791a24.1148585 24.1148585 0 0 1 24.1148587 24.11485864v225.07206137a24.1148585 24.1148585 0 1 1-48.22971728 0v-225.07206137a24.1148585 24.1148585 0 0 1 24.11485858-24.11485864zM597.52738164 336.0418791a24.1148585 24.1148585 0 0 1 24.11485849 24.11485864v225.07206137a24.1148585 24.1148585 0 1 1-48.22971718 0v-225.07206137a24.1148585 24.1148585 0 0 1 24.11485869-24.11485864zM774.3697126 336.0418791a24.1148585 24.1148585 0 0 1 24.11487177 24.11485864v225.07206137a24.1148585 24.1148585 0 1 1-48.22973015 0v-225.07206137a24.1148585 24.1148585 0 0 1 24.11485838-24.11485864zM243.84271922 673.64996464h530.52699338a24.1148585 24.1148585 0 1 1 0 48.22973039h-530.52699338a24.1148585 24.1148585 0 1 1 0-48.22973039z" fill="#36ab60" p-id="14889"></path></svg>