<?xml version="1.0" standalone="no"?><!DOCTYPE svg PUBLIC "-//W3C//DTD SVG 1.1//EN" "http://www.w3.org/Graphics/SVG/1.1/DTD/svg11.dtd"><svg t="1718288056770" class="icon" viewBox="0 0 1024 1024" version="1.1" xmlns="http://www.w3.org/2000/svg" p-id="16333" width="27" height="27" xmlns:xlink="http://www.w3.org/1999/xlink"><path d="M864 32h-704C70.4 32 0 102.4 0 192v640c0 89.6 70.4 160 160 160h704c89.6 0 160-70.4 160-160V192C1024 102.4 953.6 32 864 32zM960 832c0 51.2-44.8 96-96 96h-704c-51.2 0-96-44.8-96-96v-140.8h896V832z m0-204.8H64V396.8h896v230.4z m0-294.4H64V192c0-51.2 44.8-96 96-96h704c51.2 0 96 44.8 96 96v140.8z" fill="#36ab60" p-id="16334"></path><path d="M275.2 192h-128c-12.8 0-32 12.8-32 32s19.2 32 32 32h128c19.2 0 32-12.8 32-32S294.4 192 275.2 192zM147.2 537.6h128c19.2 0 32-12.8 32-32s-12.8-32-32-32h-128c-19.2 0-32 12.8-32 32s19.2 32 32 32zM147.2 832h128c19.2 0 32-12.8 32-32s-12.8-32-32-32h-128c-19.2 0-32 12.8-32 32s19.2 32 32 32z" fill="#36ab60" p-id="16335"></path></svg>