<?xml version="1.0" standalone="no"?><!DOCTYPE svg PUBLIC "-//W3C//DTD SVG 1.1//EN" "http://www.w3.org/Graphics/SVG/1.1/DTD/svg11.dtd"><svg t="1718336807326" class="icon" viewBox="0 0 1024 1024" version="1.1" xmlns="http://www.w3.org/2000/svg" p-id="11007" width="27" height="27" xmlns:xlink="http://www.w3.org/1999/xlink"><path d="M380.16 482.4576a25.6 25.6 0 0 1 0-51.2h409.4976a25.6 25.6 0 1 1 0 51.2H380.16z m0-177.664a25.6 25.6 0 0 1 0-51.2h409.4976a25.6 25.6 0 1 1 0 51.2H380.16z m0 355.2256a25.6 25.6 0 1 1 0-51.2h314.2656a25.6 25.6 0 1 1 0 51.2H380.16zM27.5968 737.3824V194.56A154.5216 154.5216 0 0 1 182.1184 40.0384h646.5536A154.5216 154.5216 0 0 1 983.1936 194.56v535.6544a154.5216 154.5216 0 0 1-154.5216 154.5216H598.016l-277.76 107.008a60.416 60.416 0 0 1-92.0064-51.5072l1.28-8.0384 15.5136-46.848-17.664-0.1536H226.816l-36.352-0.3072-11.7248-0.1024h-4.0448A147.3536 147.3536 0 0 1 27.648 737.3312z m271.7696 207.616l284.7232-109.7216 9.216-1.7408h235.3664a103.3216 103.3216 0 0 0 103.3216-103.3216V194.56a103.3216 103.3216 0 0 0-103.3216-103.3216H182.1184A103.3216 103.3216 0 0 0 78.7968 194.56v542.8224a96.1536 96.1536 0 0 0 96.768 96.1536H179.2l11.7248 0.1536 36.352 0.3072h0.6144l52.736 0.512a25.6 25.6 0 0 1 24.064 33.5872l-24.7808 74.9568c1.1776 3.7376 4.608 6.4 8.704 6.4 2.048 0 3.7888-0.512 1.8432 1.28l8.9088-5.7344z m-124.416-60.2624c0.1536 0 0.1536 0 1.2288-51.2h-0.6656c33.536 0.6656 33.3312 51.2-0.5632 51.2zM261.3248 281.2928a25.6 25.6 0 1 1-51.2 0 25.6 25.6 0 0 1 51.2 0z m0 355.7376a25.6 25.6 0 1 1-51.2 0 25.6 25.6 0 0 1 51.2 0z m0-177.8176a25.6 25.6 0 1 1-51.2 0 25.6 25.6 0 0 1 51.2 0z" fill="#ea9518" p-id="11008"></path></svg>