<?xml version="1.0" standalone="no"?><!DOCTYPE svg PUBLIC "-//W3C//DTD SVG 1.1//EN" "http://www.w3.org/Graphics/SVG/1.1/DTD/svg11.dtd"><svg t="1718336167017" class="icon" viewBox="0 0 1024 1024" version="1.1" xmlns="http://www.w3.org/2000/svg" p-id="6091" width="27" height="27" xmlns:xlink="http://www.w3.org/1999/xlink"><path d="M295.647217 762.238058h-34.13815c-54.18754-0.686376-97.031821-36.883652-106.388203-89.951316a130.591971 130.591971 0 0 1-1.481126-22.469766V301.860721c0-50.575037 27.707895-91.504692 72.647428-105.918577a131.169971 131.169971 0 0 1 39.231778-5.707755c164.404995-0.36125 328.737741 0.325125 493.178862-0.50575 65.964298-0.325125 105.232202 49.599661 110.398081 90.673816a160.539618 160.539618 0 0 1 1.22825 19.90489v352.291258c0 46.962534-22.542017 80.125309-64.158047 100.644324-15.064136 7.441755-31.537148 9.031257-48.190785 9.031256h-172.786001a25.721019 25.721019 0 0 0-17.303888 5.924505c-50.322162 39.737529-100.897199 79.475058-151.255486 119.212587-20.735765 16.400762-43.350032 23.806392-69.612926 16.184012-31.428773-9.139632-51.116912-37.064277-51.405912-73.117054-0.108375-22.325266 0.036125-44.542158 0.036125-68.240175z m71.888802 72.250053c3.612503-2.637127 5.165879-3.793128 6.719255-5.057504q76.729556-60.364919 153.386862-120.838213a79.475058 79.475058 0 0 1 51.189163-18.062513h180.625132c25.287519 0 39.231779-13.330135 39.231779-38.834404V301.969096a58.594793 58.594793 0 0 0-0.903126-12.065759c-3.612503-17.412263-18.604389-27.852395-39.737529-27.852395H260.605941c-20.735765 1.156001-35.185776 15.642136-35.221901 36.414027q-0.21675 178.746631 0 357.637762c0 20.302265 15.425386 34.680025 35.619276 34.57165 11.849009 0 23.734142-0.325125 35.583151 0 33.018274 1.083751 59.570169 21.205391 67.662175 53.284414 3.179002 12.643759 2.745502 26.299019 3.142877 39.520779 0.541875 16.328512 0.180625 32.693149 0.180625 51.008537z" fill="#f4ea2a" p-id="6092"></path><path d="M512.180625 430.321315a46.529034 46.529034 0 1 1-46.962534 46.745784 46.709659 46.709659 0 0 1 46.962534-46.745784zM310.241727 476.525224a46.456784 46.456784 0 1 1 46.601284 46.962534 46.095534 46.095534 0 0 1-46.601284-46.962534zM713.794398 476.850349a46.456784 46.456784 0 1 1-46.095534-46.384534A46.384534 46.384534 0 0 1 713.794398 476.850349z" fill="#f4ea2a" p-id="6093"></path></svg>